#!OML:ASF E:\Mandelcareful walks\Project 1\Capture day 1\Session 1\Subject1.ASF
:FULLY-SPECIFIED
:DEGREES
834
root 11.4913 9.48362 1.54487 217.174 -75.7097 -192.746
lowerback 31.1401 -0.731922 -1.19549
upperback 6.89344 -1.91611 1.15404
thorax -9.19057 -1.15904 2.77282
lowerneck -36.1005 -4.3391 -8.24473
upperneck 4.20571 -3.32979 3.7153
head 6.78171 -1.68804 2.01687
rclavicle -5.56597e-015 2.64384e-014
rhumerus 2.47572 8.07531 -52.1965
rradius 129.71
rwrist -8.8154
rhand -33.5905 -0.13991
rfingers 7.12502
rthumb -6.78428 -30.0112
lclavicle -5.56597e-015 2.64384e-014
lhumerus 33.9993 -20.4096 32.7834
lradius 125.805
lwrist 14.8572
lhand -41.7953 -48.5999
lfingers 7.12502
lthumb -14.6979 -19.1409
rfemur -111.31 -43.776 16.2731
rtibia 115.537
rfoot -20.2598 3.95601
rtoes -17.5685
lfemur -111.806 30.6484 -26.4481
ltibia 124.666
lfoot -29.9715 5.40096
ltoes -16.1266
835
root 11.4966 9.52624 1.52418 216.824 -75.8349 -192.534
lowerback 31.3969 -0.810644 -0.951721
upperback 6.89164 -1.95191 1.09926
thorax -9.3232 -1.18032 2.59267
lowerneck -36.3586 -3.26083 -7.30398
upperneck 4.54813 -2.09208 2.30636
head 6.83465 -1.22143 1.56769
rclavicle -9.54166e-015 -1.59028e-015
rhumerus 2.17514 8.08563 -52.2814
rradius 129.398
rwrist -8.86823
rhand -33.5318 -0.0304141
rfingers 7.12502
rthumb -6.72765 -29.9035
lclavicle -9.54166e-015 -1.59028e-015
lhumerus 33.7633 -20.7293 32.8319
lradius 125.783
lwrist 15.128
lhand -41.8713 -47.4296
lfingers 7.12502
lthumb -14.7712 -17.976
rfemur -110.615 -43.5591 16.2017
rtibia 115.296
rfoot -20.4941 3.73173
rtoes -17.7348
lfemur -111.203 30.597 -26.0322
ltibia 124.235
lfoot -29.9189 5.38906
ltoes -16.275
836
root 11.504 9.56523 1.49878 217.188 -75.7348 -192.902
lowerback 31.3726 -0.782536 -0.978516
upperback 6.88862 -1.93487 0.998963
thorax -9.31908 -1.17207 2.48687
lowerneck -36.6252 -2.00807 -6.14544
upperneck 4.94809 -0.662559 0.530641
head 6.93437 -0.704067 0.98451
rclavicle -4.57205e-015 -1.19271e-014
rhumerus 1.758 8.20712 -52.4518
rradius 129.129
rwrist -8.84841
rhand -33.5918 0.00495086
rfingers 7.12502
rthumb -6.78552 -29.8663
lclavicle -4.57205e-015 -1.19271e-014
lhumerus 33.6023 -21.1596 32.762
lradius 125.765
lwrist 15.4306
lhand -41.4709 -46.4985
lfingers 7.12502
lthumb -14.3854 -17.017
rfemur -110.307 -43.2112 16.0798
rtibia 115.075
rfoot -20.6225 3.35839
rtoes -18.2047
lfemur -110.785 30.5928 -25.9291
ltibia 123.783
lfoot -29.782 5.46674
ltoes -16.8527
837
root 11.5105 9.59902 1.47262 217.89 -75.5802 -193.491
lowerback 31.0094 -0.715059 -1.04913
upperback 6.93287 -1.87448 0.926815
thorax -9.09813 -1.14619 2.40853
lowerneck -36.4866 -0.731632 -5.16879
upperneck 4.9839 0.854378 -1.33075
head 6.90498 -0.159693 0.413645
rclavicle -3.97569e-016 3.47873e-015
rhumerus 1.41884 8.41792 -52.55
rradius 128.785
rwrist -8.73044
rhand -33.4204 -0.0592854
rfingers 7.12502
rthumb -6.62008 -29.9358
lclavicle -3.97569e-016 3.47873e-015
lhumerus 33.5296 -21.6424 32.7064
lradius 125.507
lwrist 15.1143
lhand -40.9148 -45.8799
lfingers 7.12502
lthumb -13.8496 -16.361
rfemur -110.285 -42.9007 15.9881
rtibia 114.912
rfoot -20.6933 3.10325
rtoes -18.1883
lfemur -110.519 30.5619 -25.9627
ltibia 123.351
lfoot -29.6418 5.49189
ltoes -17.06
838
root 11.5096 9.63584 1.4529 218.167 -75.6312 -193.617
lowerback 30.9176 -0.743027 -0.76734
upperback 6.73086 -1.80329 0.869392
thorax -9.29894 -1.10501 2.15517
lowerneck -36.0123 0.466673 -4.30329
upperneck 5.04365 2.29321 -2.97533
head 6.8876 0.379248 -0.0734094
rclavicle -4.17448e-014 -1.6201e-014
rhumerus 0.851357 8.8153 -52.6917
rradius 128.342
rwrist -8.55389
rhand -33.29 -0.190708
rfingers 7.12502
rthumb -6.49416 -30.0711
lclavicle -4.17448e-014 -1.6201e-014
lhumerus 33.2234 -22.4984 32.829
lradius 125.23
lwrist 14.9158
lhand -40.3721 -45.0477
lfingers 7.12502
lthumb -13.3265 -15.4938
rfemur -110.092 -42.7444 16.0127
rtibia 114.696
rfoot -20.8063 2.97558
rtoes -18.1374
lfemur -110.319 30.3944 -25.7625
ltibia 122.956
lfoot -29.5251 5.4873
ltoes -16.8286
839
root 11.5075 9.68605 1.43776 218.445 -75.8748 -193.763
lowerback 30.4426 -0.911387 -0.130252
upperback 6.83897 -1.83835 0.706704
thorax -8.96905 -1.14022 1.59632
lowerneck -35.944 1.571 -3.39654
upperneck 5.11706 3.57819 -4.40998
head 6.95817 0.859546 -0.516242
rclavicle -4.8901e-014 3.57812e-014
rhumerus 0.554524 8.89268 -53.0257
rradius 127.875
rwrist -8.39966
rhand -33.2425 -0.482328
rfingers 7.12502
rthumb -6.44836 -30.3642
lclavicle -4.8901e-014 3.57812e-014
lhumerus 33.2077 -23.0648 32.729
lradius 125.024
lwrist 15.2138
lhand -39.3232 -43.7263
lfingers 7.12502
lthumb -12.3153 -14.109
rfemur -109.664 -42.7188 16.0496
rtibia 114.361
rfoot -20.9592 2.7734
rtoes -18.5756
lfemur -110.076 29.9389 -25.3351
ltibia 122.511
lfoot -29.3455 5.58831
ltoes -16.5982
840
root 11.5131 9.74389 1.41795 219.204 -76.0026 -194.498
lowerback 30.4015 -0.964678 -0.0697197
upperback 6.79539 -1.8744 0.759876
thorax -8.99784 -1.15456 1.63405
lowerneck -35.7595 2.60349 -2.74184
upperneck 5.23332 4.88595 -5.82961
head 7.05723 1.34551 -0.908589
rclavicle -7.35503e-014 -8.32908e-014
rhumerus 0.197728 9.25961 -52.9671
rradius 127.434
rwrist -8.44556
rhand -32.847 -0.517659
rfingers 7.12502
rthumb -6.06646 -30.4108
lclavicle -7.35503e-014 -8.32908e-014
lhumerus 32.7053 -23.8909 32.9698
lradius 124.715
lwrist 14.9713
lhand -38.6149 -41.7659
lfingers 7.12502
lthumb -11.6323 -12.1088
rfemur -109.131 -42.6474 15.8691
rtibia 113.992
rfoot -21.1183 2.59108
rtoes -18.7183
lfemur -109.535 29.4689 -25.0015
ltibia 121.964
lfoot -29.2391 5.58811
ltoes -16.2134
841
root 11.5232 9.80275 1.39079 219.752 -75.9058 -195.071
lowerback 30.258 -0.962009 -0.152953
upperback 6.89759 -1.9158 0.655389
thorax -8.81264 -1.17813 1.57218
lowerneck -35.3893 3.45277 -2.25622
upperneck 4.96843 5.91566 -6.79771
head 6.99617 1.75989 -1.15978
rclavicle -7.21588e-014 7.95139e-016
rhumerus 0.0422455 9.62913 -53.1503
rradius 126.837
rwrist -8.42122
rhand -32.6832 -0.0396928
rfingers 7.12502
rthumb -5.90834 -29.9373
lclavicle -7.21588e-014 7.95139e-016
lhumerus 32.4308 -24.7374 32.6553
lradius 124.271
lwrist 14.7737
lhand -38.5859 -39.7584
lfingers 7.12502
lthumb -11.6044 -10.0997
rfemur -108.602 -42.3107 15.6314
rtibia 113.63
rfoot -21.2513 2.34142
rtoes -18.6234
lfemur -108.843 29.2913 -24.8196
ltibia 121.373
lfoot -29.2124 5.59658
ltoes -16.2663
842
root 11.5327 9.86757 1.36419 219.903 -75.9005 -195.245
lowerback 30.5235 -0.925541 -0.231203
upperback 6.6843 -1.86743 0.722789
thorax -9.18081 -1.14175 1.68974
lowerneck -34.7171 4.058 -2.07039
upperneck 4.80435 6.71874 -7.44711
head 6.91435 2.10699 -1.28891
rclavicle -1.8487e-014 2.62396e-014
rhumerus -0.604082 10.4106 -53.2053
rradius 126.238
rwrist -8.48718
rhand -32.9879 -1.99225
rfingers 7.12502
rthumb -6.20256 -31.8815
lclavicle -1.8487e-014 2.62396e-014
lhumerus 31.9427 -26.1724 32.5236
lradius 123.767
lwrist 15.268
lhand -38.1262 -38.2799
lfingers 7.12502
lthumb -11.161 -8.59673
rfemur -107.97 -41.9448 15.525
rtibia 113.225
rfoot -21.3986 2.01337
rtoes -18.5472
lfemur -108.149 29.1069 -24.5151
ltibia 120.728
lfoot -29.141 5.71628
ltoes -16.2911
843
root 11.5374 9.93984 1.34013 220.292 -75.9714 -195.63
lowerback 30.4555 -1.00225 -0.0577638
upperback 6.63291 -1.91317 0.634842
thorax -9.21396 -1.16354 1.50571
lowerneck -34.4774 4.58586 -1.64979
upperneck 4.89221 7.33327 -7.91828
head 6.97241 2.37037 -1.41859
rclavicle 2.0276e-014 1.82882e-014
rhumerus -1.35299 11.1794 -53.6115
rradius 125.499
rwrist -8.69843
rhand -32.3929 -1.92899
rfingers 7.12502
rthumb -5.62809 -31.8342
lclavicle 2.0276e-014 1.82882e-014
lhumerus 31.6245 -27.6625 32.1771
lradius 123.084
lwrist 15.8168
lhand -36.5774 -36.7528
lfingers 7.12502
lthumb -9.66692 -6.99461
rfemur -107.255 -41.6859 15.3904
rtibia 112.769
rfoot -21.5817 1.69318
rtoes -18.3017
lfemur -107.442 28.7429 -24.13
ltibia 120.02
lfoot -29.0365 5.83498
ltoes -15.9556
844
root 11.5428 10.0193 1.31076 220.61 -75.9778 -196.06
lowerback 30.5374 -1.00308 -0.00990903
upperback 6.65118 -1.91495 0.520527
thorax -9.23827 -1.16702 1.35181
lowerneck -34.5049 5.12816 -0.968459
upperneck 5.09648 7.89564 -8.52457
head 7.12644 2.58586 -1.63911
rclavicle -3.69739e-014 9.34288e-015
rhumerus -2.08239 12.0307 -54.1789
rradius 124.514
rwrist -8.93331
rhand -31.9537 -1.78468
rfingers 7.12502
rthumb -5.20403 -31.7008
lclavicle -3.69739e-014 9.34288e-015
lhumerus 31.3936 -29.3946 31.781
lradius 122.131
lwrist 15.7429
lhand -34.9111 -34.8206
lfingers 7.12502
lthumb -8.05894 -4.99423
rfemur -106.322 -41.2727 15.0652
rtibia 112.285
rfoot -21.7491 1.22392
rtoes -17.9562
lfemur -106.471 28.4605 -23.8717
ltibia 119.245
lfoot -29.024 6.18669
ltoes -16.8907
